<?xml version="1.0" standalone="no"?>
<!DOCTYPE svg PUBLIC "-//W3C//DTD SVG 20010904//EN"
 "http://www.w3.org/TR/2001/REC-SVG-20010904/DTD/svg10.dtd">
<svg version="1.0" xmlns="http://www.w3.org/2000/svg"
 width="108.000000pt" height="32.000000pt" viewBox="0 0 108.000000 32.000000"
 preserveAspectRatio="xMidYMid meet">
<metadata>
Created by potrace 1.16, written by Peter Selinger 2001-2019
</metadata>
<g transform="translate(0.000000,32.000000) scale(0.009000,-0.003556)"
fill="#000000" stroke="none">
<path d="M5674 8715 c-66 -18 -118 -47 -122 -68 -3 -15 8 -17 92 -17 57 0 97
-4 101 -11 4 -6 8 -25 9 -42 3 -46 24 -228 46 -402 11 -82 24 -195 30 -250 6
-55 14 -124 17 -152 4 -36 2 -53 -5 -53 -25 0 -34 36 -82 320 -22 126 -36 185
-43 183 -111 -27 -255 -29 -280 -4 -41 41 -25 -12 55 -176 128 -266 140 -293
123 -293 -7 0 -28 17 -45 38 -26 29 -312 331 -369 389 -8 8 -21 11 -30 7 -9
-4 -45 -18 -81 -31 -36 -14 -101 -39 -145 -58 -44 -18 -88 -36 -99 -39 -15 -5
-16 -9 -6 -21 11 -13 181 -128 308 -208 23 -15 42 -32 42 -38 0 -13 -10 -12
-210 32 -80 17 -179 37 -220 44 -120 22 -214 42 -232 50 -13 5 -18 2 -18 -11
0 -13 320 -655 335 -672 2 -2 73 -4 159 -4 171 0 183 -3 171 -58 -7 -32 -12
-34 -100 -45 -27 -3 -93 -13 -145 -21 -52 -8 -210 -30 -349 -49 -140 -20 -257
-38 -260 -41 -7 -7 68 -72 96 -84 23 -9 33 -8 213 24 47 9 114 19 150 22 58 6
63 5 50 -9 -8 -8 -78 -38 -155 -68 -77 -29 -142 -54 -145 -56 -6 -6 42 -48
150 -132 52 -41 101 -79 108 -84 9 -8 21 -6 40 5 15 9 56 31 92 50 36 19 89
49 118 67 79 46 89 41 68 -35 -29 -103 -49 -280 -32 -293 12 -9 327 -25 540
-26 149 -1 161 -5 134 -48 -8 -12 -26 -51 -40 -87 -15 -36 -46 -108 -71 -160
-24 -52 -66 -147 -92 -210 -26 -63 -52 -119 -56 -124 -5 -6 -9 -18 -9 -28 0
-16 20 -17 299 -18 l299 0 5 22 c3 13 8 136 12 273 3 138 8 261 11 274 10 46
24 5 44 -129 12 -74 28 -175 36 -225 8 -49 17 -112 20 -140 4 -27 11 -56 17
-62 7 -10 88 -13 344 -13 l334 0 -28 48 c-15 26 -63 103 -107 172 -43 69 -112
179 -154 245 -41 66 -81 127 -88 136 -24 28 -16 39 29 39 23 0 47 -4 54 -8 12
-7 75 -96 86 -122 4 -8 30 -46 58 -85 28 -38 58 -81 67 -95 9 -14 31 -44 48
-67 18 -23 34 -47 36 -54 3 -10 25 -7 89 11 113 31 119 38 77 86 -18 21 -36
43 -41 49 -4 5 -33 44 -66 85 -32 41 -64 86 -70 98 l-13 24 37 -25 c20 -13 60
-46 90 -73 119 -108 178 -159 195 -167 16 -8 70 6 363 100 42 13 77 28 77 31
-1 4 -54 46 -118 95 -64 48 -141 106 -170 129 l-53 41 -282 9 c-155 5 -415 15
-577 21 l-295 12 -5 35 -5 35 -280 3 c-181 1 -281 6 -286 13 -3 6 -3 31 2 57
4 26 10 70 14 97 7 50 9 52 261 305 206 207 254 261 254 282 0 17 -8 31 -19
38 -23 12 -491 14 -491 3 0 -27 -109 -785 -113 -790 -8 -7 -279 -5 -286 3 -4
5 16 173 45 374 29 201 53 377 53 393 l1 27 -190 0 -191 0 -55 118 c-31 64
-69 145 -86 180 -39 82 -35 92 34 81 29 -5 265 -38 523 -74 259 -36 481 -68
494 -71 21 -5 23 -9 17 -44 -7 -45 2 -50 30 -19 42 46 93 64 189 64 100 0 150
-18 212 -78 55 -52 76 -110 71 -197 -3 -45 -12 -89 -23 -110 -10 -19 -102
-120 -204 -223 -102 -104 -187 -192 -189 -196 -3 -10 188 -8 204 2 6 3 12 18
12 33 0 14 3 29 8 34 9 8 364 80 397 80 9 0 47 -32 84 -71 53 -55 84 -79 152
-112 79 -38 94 -42 177 -45 157 -6 280 40 379 143 53 55 113 163 122 220 4 28
12 36 37 44 46 14 186 35 192 28 4 -3 -16 -45 -44 -94 -27 -48 -62 -110 -77
-138 -34 -60 -94 -167 -122 -215 -18 -32 -25 -36 -79 -42 -62 -8 -666 -53
-866 -64 -65 -4 -118 -11 -118 -15 0 -10 1013 -12 1070 -3 33 6 39 13 120 157
47 82 99 176 117 208 17 31 55 97 84 145 28 49 65 114 82 144 16 30 35 65 43
76 7 12 11 24 8 26 -2 3 -77 -8 -167 -23 -89 -15 -185 -30 -212 -34 l-51 -6
-18 58 c-10 32 -31 82 -47 111 -17 30 -29 61 -27 69 2 10 36 26 93 43 50 15
113 37 140 47 28 11 59 23 70 27 22 8 21 9 -130 126 -98 76 -115 89 -250 196
-49 39 -95 74 -102 77 -9 6 -177 -70 -285 -129 -14 -7 -34 -14 -45 -14 -24 1
14 36 157 145 36 27 68 54 72 59 13 20 -93 108 -110 91 -18 -18 -304 -287
-362 -340 -36 -33 -104 -98 -152 -144 -110 -107 -111 -108 -150 -79 -48 34
-63 42 -165 90 -12 6 -63 9 -118 6 -93 -4 -96 -3 -90 17 33 105 33 62 0 515
-8 107 -17 259 -21 338 l-7 143 -31 16 c-42 22 -159 26 -222 8z m1453 -1185
c102 -45 193 -141 228 -239 29 -84 16 -230 -29 -316 -26 -49 -115 -132 -175
-162 -51 -26 -66 -28 -166 -28 -101 0 -114 2 -163 28 -60 32 -132 93 -132 112
0 8 21 18 53 24 60 12 377 71 382 71 8 0 46 71 43 79 -2 4 -191 -32 -421 -81
-230 -50 -421 -87 -424 -84 -11 11 4 17 94 41 48 12 178 46 288 75 110 28 224
58 253 66 28 8 78 21 110 29 177 48 172 46 193 86 23 47 24 53 2 46 -250 -74
-347 -102 -388 -112 -27 -7 -126 -35 -220 -63 -241 -71 -281 -82 -297 -82 -22
1 42 32 137 65 412 147 581 210 608 228 23 15 65 83 56 91 -2 3 -117 -40 -254
-95 -280 -112 -290 -115 -300 -100 -3 6 4 43 16 83 39 123 162 229 299 258 60
12 155 3 207 -20z"/>
<path d="M5545 8543 c7 -18 21 -66 54 -190 9 -34 20 -65 23 -68 8 -9 88 14 88
24 0 21 -39 232 -45 241 -3 5 -33 10 -67 10 -53 0 -59 -2 -53 -17z"/>
<path d="M6265 5531 c-43 -19 -119 -96 -110 -110 3 -5 26 -16 52 -25 46 -16
47 -16 72 8 28 26 86 46 111 38 25 -8 50 -34 50 -52 0 -28 -37 -67 -95 -100
-66 -38 -151 -113 -170 -151 -8 -15 -20 -51 -26 -80 -9 -42 -9 -53 2 -60 18
-11 479 -12 479 0 0 4 -18 29 -41 55 l-41 46 -118 0 c-65 0 -121 4 -124 9 -8
12 27 41 132 110 125 83 158 140 130 226 -10 30 -26 48 -62 73 -44 29 -55 32
-125 32 -52 0 -89 -6 -116 -19z"/>
<path d="M6823 5535 c-141 -44 -213 -143 -213 -293 0 -92 22 -145 82 -197 72
-61 203 -82 301 -49 65 22 135 87 164 151 30 69 32 187 4 248 -35 78 -102 126
-202 145 -65 13 -84 12 -136 -5z m156 -120 c39 -20 71 -89 71 -152 0 -43 -6
-59 -33 -95 -37 -49 -66 -66 -128 -74 -36 -5 -51 -1 -79 18 -102 68 -95 233
13 298 39 24 116 26 156 5z"/>
<path d="M4565 5520 c-3 -5 -24 -108 -47 -227 -22 -120 -44 -235 -48 -255 -4
-21 -5 -40 -2 -43 8 -8 85 -6 98 3 6 4 23 72 37 152 15 80 36 186 47 235 11
50 20 102 20 118 0 26 -2 27 -49 27 -28 0 -53 -4 -56 -10z"/>
<path d="M4905 5517 c-89 -35 -139 -82 -187 -177 -29 -59 -32 -73 -33 -155 0
-81 3 -93 25 -123 29 -39 78 -67 135 -75 45 -7 163 9 181 24 7 5 11 29 10 52
-1 36 -4 42 -21 39 -95 -14 -120 -14 -150 3 -18 9 -38 28 -44 41 -32 72 7 198
79 252 44 34 46 34 121 29 l77 -5 12 43 c7 24 9 48 5 54 -8 15 -171 13 -210
-2z"/>
<path d="M5305 5506 c-119 -57 -195 -187 -195 -335 0 -126 70 -187 210 -184
117 3 134 11 141 64 4 24 4 47 0 51 -3 4 -25 2 -48 -4 -62 -15 -128 -3 -154
30 -18 23 -21 36 -17 99 4 58 11 82 34 119 43 69 81 87 175 80 l77 -5 11 46
c15 59 10 63 -99 63 -69 0 -94 -5 -135 -24z"/>
<path d="M5696 5508 c-3 -13 -6 -35 -6 -50 0 -28 1 -28 64 -28 36 0 67 -4 71
-9 3 -6 -6 -95 -20 -199 -34 -254 -37 -232 35 -232 47 0 61 4 69 18 8 15 25
145 47 359 l5 51 62 7 c54 7 66 12 94 44 18 20 32 42 33 49 0 9 -51 12 -224
12 -224 0 -224 0 -230 -22z"/>
<path d="M4485 4834 c-90 -22 -164 -79 -207 -158 -29 -54 -32 -70 -32 -137 1
-91 26 -152 84 -202 59 -50 128 -71 215 -64 117 9 196 59 246 156 31 60 38
184 15 245 -20 53 -77 113 -131 136 -41 19 -154 32 -190 24z m141 -133 c81
-49 85 -203 7 -273 -77 -70 -194 -54 -238 32 -24 46 -19 140 8 181 51 76 152
103 223 60z"/>
<path d="M6680 4827 c-137 -39 -215 -143 -215 -287 1 -150 87 -245 242 -266
88 -11 194 25 248 86 l20 22 -40 34 c-22 18 -43 34 -46 34 -3 0 -19 -11 -35
-25 -34 -29 -78 -39 -140 -32 -76 8 -114 62 -114 159 0 82 47 148 119 168 65
18 96 12 147 -26 l48 -37 43 23 c24 13 43 26 43 31 0 18 -65 81 -102 100 -50
26 -157 33 -218 16z"/>
<path d="M7075 4819 c-7 -10 -32 -203 -41 -310 -6 -74 -4 -90 14 -125 27 -53
58 -79 115 -98 82 -27 185 -15 244 29 59 46 81 111 103 305 11 96 20 181 20
188 0 10 -16 12 -62 10 l-62 -3 -23 -170 c-12 -93 -22 -176 -23 -183 0 -8 -13
-27 -29 -43 -25 -24 -38 -29 -80 -29 -42 0 -53 4 -71 28 -21 25 -22 34 -16
117 3 50 12 133 20 185 8 52 13 96 12 98 -8 7 -117 9 -121 1z"/>
<path d="M7654 4823 c-37 -5 -33 14 -64 -293 -12 -113 -22 -212 -23 -220 -1
-11 11 -16 46 -20 26 -3 52 -3 58 1 6 3 16 46 22 95 l12 89 85 5 c138 9 198
53 208 151 6 62 -2 90 -34 129 -43 51 -78 63 -184 65 -52 1 -109 0 -126 -2z
m179 -104 c30 -16 37 -28 37 -70 0 -49 -23 -67 -90 -71 l-55 -3 3 64 c1 35 7
70 13 77 14 17 63 18 92 3z"/>
<path d="M3534 4805 c-6 -14 63 -502 73 -517 6 -12 101 -10 124 2 10 6 19 18
19 26 0 9 7 28 15 42 8 15 33 80 56 145 23 64 45 117 49 117 4 0 15 -53 24
-117 9 -65 22 -140 29 -168 l12 -50 56 -2 c30 -1 60 2 66 5 10 6 63 136 104
252 7 19 21 58 32 85 31 78 67 179 67 188 0 4 -30 7 -67 5 l-68 -3 -12 -45
c-19 -74 -92 -302 -98 -308 -10 -10 -12 2 -33 167 -12 90 -25 168 -30 173 -5
5 -33 8 -63 6 l-54 -3 -24 -60 c-13 -33 -39 -105 -58 -160 -33 -95 -47 -124
-57 -114 -2 2 -9 58 -15 124 -6 66 -14 144 -17 173 l-6 52 -59 0 c-43 0 -61
-4 -65 -15z"/>
<path d="M4915 4808 c-2 -7 -9 -62 -15 -123 -7 -60 -20 -172 -31 -249 -10 -76
-16 -142 -13 -147 8 -14 102 -11 111 4 4 6 13 50 18 97 l10 85 32 3 c32 3 34
1 80 -95 l48 -98 54 -3 c30 -2 58 1 63 6 6 6 -8 44 -36 101 -25 50 -46 94 -46
98 0 5 15 18 34 30 34 22 76 93 76 129 0 33 -19 90 -38 111 -9 11 -33 30 -52
42 -31 18 -50 21 -163 21 -93 0 -129 -3 -132 -12z m237 -108 c48 -59 3 -120
-89 -120 l-54 0 7 63 c4 34 11 68 17 76 17 21 97 8 119 -19z"/>
<path d="M5396 4788 c-3 -18 -7 -55 -10 -83 -3 -27 -15 -130 -27 -229 -16
-137 -19 -180 -9 -186 13 -8 366 -8 373 0 3 3 7 25 8 50 l4 45 -120 3 c-66 1
-123 6 -128 11 -5 5 1 90 12 190 29 253 33 231 -39 231 -59 0 -59 0 -64 -32z"/>
<path d="M5836 4778 c-30 -233 -56 -479 -52 -487 4 -6 66 -8 154 -6 170 4 232
21 296 81 102 96 113 273 24 370 -62 67 -119 84 -283 84 l-134 0 -5 -42z m284
-78 c36 -19 60 -70 60 -128 0 -120 -66 -182 -196 -182 -29 0 -56 4 -59 10 -6
9 21 279 31 309 3 11 20 13 74 8 38 -3 78 -11 90 -17z"/>
</g>
</svg>
